<?xml version="1.0" encoding="UTF-8"?>
<svg id="Capa_2" data-name="Capa 2" xmlns="http://www.w3.org/2000/svg" viewBox="0 0 1198.46 1062.73">
  <defs>
    <style>
      .cls-1 {
        fill: #000f9f;
      }

      .cls-1, .cls-2, .cls-3 {
        stroke-width: 0px;
      }

      .cls-2 {
        fill: #001f60;
      }

      .cls-3 {
        fill: #1d1d1b;
      }
    </style>
  </defs>
  <g id="Layer_1" data-name="Layer 1">
    <g>
      <path class="cls-3" d="M1198.46,769.23h-124.57s0,26.05,0,26.05h47.06s0,122.06,0,122.06h30.25s0-122.06,0-122.06h47.27s0-26.05,0-26.05ZM964.24,795.28h30.46c23.32,0,31.3,14.29,31.3,29.62,0,17.43-11.34,29.62-35.3,29.62h-26.47s0-59.24,0-59.24ZM1026,917.33h35.92s-34.45-44.12-34.45-44.12c19.53-8.4,30.04-25.21,30.04-50.63,0-27.73-14.71-53.36-57.98-53.36h-65.33s0,148.1,0,148.1h30.04s0-38.03,0-38.03h27.52c1.89,0,3.99,0,5.67-.21l28.57,38.23ZM830.42,890.86c-26.47,0-47.9-21.22-47.9-47.48,0-26.05,21.43-47.48,47.9-47.48s48.11,21.42,48.11,47.48c0,26.26-21.63,47.48-48.11,47.48M830.42,767.76c-43.49,0-78.78,33.82-78.78,75.63,0,41.8,35.3,75.63,78.78,75.63,43.69,0,78.78-33.82,78.78-75.63s-35.08-75.63-78.78-75.63M647.65,854.31v-59.04s26.05,0,26.05,0c23.32,0,31.3,14.29,31.3,29.62,0,17.43-11.34,29.41-35.29,29.41h-22.06ZM617.61,769.23v148.1s30.04,0,30.04,0v-38.03s25,0,25,0c37.6,0,63.86-16.17,63.86-56.72,0-27.73-14.7-53.36-57.98-53.36h-60.92ZM526.86,819.65l-36.34-50.42h-33.61s50.63,73.32,50.63,73.32l-52.1,74.79h34.24s37.18-51.68,37.18-51.68l37.18,51.68h34.24s-51.89-74.79-51.89-74.79l50.42-73.32h-33.41s-36.55,50.42-36.55,50.42ZM357.54,891.28v-33.19s67.01,0,67.01,0v-25.21s-67.01,0-67.01,0v-37.61s80.04,0,80.04,0v-26.05s-109.24,0-109.24,0v148.1s113.65,0,113.65,0v-26.05s-84.45,0-84.45,0ZM234.23,843.17v25.21s37.6,0,37.6,0v13.86c-9.45,6.3-21.22,10.08-34.45,10.08-26.47,0-47.9-21.43-47.9-48.95,0-26.05,21.43-47.48,47.9-47.48,16.17,0,30.46,5.25,40.34,14.07l18.9-21.01c-14.29-13.02-34.45-21.22-59.24-21.22-43.27,0-78.56,33.82-78.56,75.63,0,41.8,35.29,75.63,78.56,75.63,25.42,0,48.11-8.41,64.5-21.64v-54.2s-67.64,0-67.64,0ZM77.94,813.34l22.48,48.95h-44.75s22.27-48.95,22.27-48.95ZM124.57,917.33h31.72s-70.79-148.1-70.79-148.1h-14.92S0,917.33,0,917.33h31.72s13.24-30.04,13.24-30.04h66.17s13.44,30.04,13.44,30.04Z"/>
      <path class="cls-3" d="M362.65,1052.42l.54-.44v-24.23s-34.11,0-34.11,0v6.23s27.59,0,27.59,0v14.73c-6.83,4.97-15.24,7.6-24.37,7.6-16.96,0-30.76-13.23-30.76-29.51,0-16.22,13.8-29.41,30.76-29.41,9.23,0,17.58,3,23.5,8.42l1.07.99,4.42-4.76-1.08-1c-7.19-6.65-16.84-10.17-27.91-10.17-20.61,0-37.38,16.12-37.38,35.93,0,19.81,16.76,35.93,37.38,35.93,11.29,0,22.35-3.76,30.36-10.31M433.66,1033.48v-42.32s-6.52,0-6.52,0v41.93c0,14.26-8.6,23.12-22.44,23.12-13.72,0-22.24-8.86-22.24-23.12v-41.93s-6.42,0-6.42,0v42.32c0,17.49,11.52,29.25,28.66,29.25,17.33,0,28.96-11.76,28.96-29.25M457.1,1036.56l15.85-35.95,16.03,35.95h-31.88ZM507.35,1062.34l-32.01-71.18h-4.61s-32.1,71.18-32.1,71.18h7.1s8.71-19.75,8.71-19.75h37.1s8.81,19.75,8.81,19.75h7ZM534.14,997.48h24.88s0-6.32,0-6.32h-56.18s0,6.32,0,6.32h24.78s0,64.85,0,64.85h6.52s0-64.85,0-64.85ZM570.4,1062.34h49.89s0-6.33,0-6.33h-43.37s0-25.13,0-25.13h35.33s0-6.23,0-6.23h-35.33s0-27.16,0-27.16h41.33s0-6.32,0-6.32h-47.85s0,71.18,0,71.18ZM694.3,1062.34h6.52s0-71.18,0-71.18h-4.62s-29.86,48.79-29.86,48.79l-29.86-48.79h-4.71s0,71.18,0,71.18h6.52s0-56.16,0-56.16l28.06,45.99,27.96-45.98v56.14ZM727.16,1036.56l15.85-35.95,16.03,35.95h-31.88ZM770.42,1062.34h7s-32.01-71.18-32.01-71.18h-4.61s-32.11,71.18-32.11,71.18h7.1s8.71-19.75,8.71-19.75h37.1s8.81,19.75,8.81,19.75ZM785.29,1062.34h46.69s0-6.23,0-6.23h-40.18s0-64.95,0-64.95h-6.52s0,71.18,0,71.18ZM853.28,1036.56l15.85-35.95,16.03,35.95h-31.88ZM903.54,1062.34l-32.01-71.18h-4.61s-32.1,71.18-32.1,71.18h7.1s8.71-19.75,8.71-19.75h37.1s8.81,19.75,8.81,19.75h7Z"/>
      <g>
        <path class="cls-1" d="M423.58,535.79c119.6,19.46,184.92-25.86,184.92-25.86h0c-3.24.17-6.5.27-9.77.27-95.18,0-172.62-77.44-172.62-172.62,0-95.18,77.43-172.62,172.62-172.62,59.55,0,114.15,30.1,146.04,80.52,2.59,4.1,4.98,8.31,7.21,12.59l66.61-66.62,52.86-52.86c-28.48-38.95-65.2-71.65-107.27-95.34C713.91,14.96,656.7,0,598.74,0c-45.54,0-89.76,8.93-131.43,26.56-40.21,17.01-76.31,41.34-107.28,72.31-30.98,30.98-55.31,67.07-72.31,107.28-17.63,41.67-26.56,85.89-26.56,131.43,0,9.55.42,19.03,1.2,28.45,11.65,95.13,81.23,156.74,161.23,169.76"/>
        <path class="cls-2" d="M808.48,359.71h-128.97s67.55,67.69,67.55,67.69l-1.72,2.07c-2.87,4.02-5.99,8.3-7.39,10.21-6.02,8.19-12.78,15.83-20.13,22.84-115.27,121.31-317.39,124.83-410.11,46.2,14.44,24.55,31.93,47.18,52.33,67.57,30.98,30.98,67.07,55.31,107.28,72.32,41.67,17.63,85.89,26.56,131.43,26.56,53.83,0,107.42-13.01,154.98-37.61,42.23-21.85,79.86-52.89,109.51-90.18h0s1.57-2.15,1.57-2.15l72.5,72.43v-128.97s0-128.97,0-128.97h-128.83Z"/>
      </g>
    </g>
  </g>
</svg>